<svg
    width="16"
    height="16"
    viewBox="0 0 16 16"
    fill="none"
    xmlns="http://www.w3.org/2000/svg"
    >
    <path
        d="M1.33342 13.3333V3.49992C1.33342 3.38881 1.35564 3.28881 1.40009 3.19992C1.44453 3.11103 1.5112 3.03325 1.60009 2.96659L4.26675 0.966585C4.38898 0.877696 4.52231 0.833252 4.66675 0.833252C4.8112 0.833252 4.94453 0.877696 5.06675 0.966585L7.73342 2.96659C7.82231 3.03325 7.88898 3.11103 7.93342 3.19992C7.97786 3.28881 8.00009 3.38881 8.00009 3.49992V4.66659H14.0001C14.189 4.66659 14.3473 4.73047 14.4751 4.85825C14.6029 4.98603 14.6668 5.14436 14.6668 5.33325V13.3333C14.6668 13.5221 14.6029 13.6805 14.4751 13.8083C14.3473 13.936 14.189 13.9999 14.0001 13.9999H2.00009C1.8112 13.9999 1.65286 13.936 1.52509 13.8083C1.39731 13.6805 1.33342 13.5221 1.33342 13.3333ZM2.66675 12.6666H4.00009V11.3333H2.66675V12.6666ZM2.66675 9.99992H4.00009V8.66659H2.66675V9.99992ZM2.66675 7.33325H4.00009V5.99992H2.66675V7.33325ZM2.66675 4.66659H4.00009V3.33325H2.66675V4.66659ZM5.33342 4.66659H6.66675V3.33325H5.33342V4.66659ZM5.33342 12.6666H13.3334V5.99992H5.33342V12.6666ZM10.0001 7.33325H11.3334C11.5223 7.33325 11.6806 7.39714 11.8084 7.52492C11.9362 7.6527 12.0001 7.81103 12.0001 7.99992C12.0001 8.18881 11.9362 8.34714 11.8084 8.47492C11.6806 8.6027 11.5223 8.66659 11.3334 8.66659H10.0001C9.8112 8.66659 9.65286 8.6027 9.52509 8.47492C9.39731 8.34714 9.33342 8.18881 9.33342 7.99992C9.33342 7.81103 9.39731 7.6527 9.52509 7.52492C9.65286 7.39714 9.8112 7.33325 10.0001 7.33325ZM10.0001 9.99992H11.3334C11.5223 9.99992 11.6806 10.0638 11.8084 10.1916C11.9362 10.3194 12.0001 10.4777 12.0001 10.6666C12.0001 10.8555 11.9362 11.0138 11.8084 11.1416C11.6806 11.2694 11.5223 11.3333 11.3334 11.3333H10.0001C9.8112 11.3333 9.65286 11.2694 9.52509 11.1416C9.39731 11.0138 9.33342 10.8555 9.33342 10.6666C9.33342 10.4777 9.39731 10.3194 9.52509 10.1916C9.65286 10.0638 9.8112 9.99992 10.0001 9.99992ZM8.00009 7.99992C8.00009 8.18881 7.9362 8.34714 7.80842 8.47492C7.68064 8.6027 7.52231 8.66659 7.33342 8.66659C7.14453 8.66659 6.9862 8.6027 6.85842 8.47492C6.73064 8.34714 6.66675 8.18881 6.66675 7.99992C6.66675 7.81103 6.73064 7.6527 6.85842 7.52492C6.9862 7.39714 7.14453 7.33325 7.33342 7.33325C7.52231 7.33325 7.68064 7.39714 7.80842 7.52492C7.9362 7.6527 8.00009 7.81103 8.00009 7.99992ZM7.33342 11.3333C7.14453 11.3333 6.9862 11.2694 6.85842 11.1416C6.73064 11.0138 6.66675 10.8555 6.66675 10.6666C6.66675 10.4777 6.73064 10.3194 6.85842 10.1916C6.9862 10.0638 7.14453 9.99992 7.33342 9.99992C7.52231 9.99992 7.68064 10.0638 7.80842 10.1916C7.9362 10.3194 8.00009 10.4777 8.00009 10.6666C8.00009 10.8555 7.9362 11.0138 7.80842 11.1416C7.68064 11.2694 7.52231 11.3333 7.33342 11.3333Z"
        fill="#4D3D33"
    />
</svg>