<svg width="16" height="18" viewBox="0 0 16 18" fill="none" xmlns="http://www.w3.org/2000/svg">
<g clip-path="url(#clip0_1_4211)">
<path d="M16 9.11593C15.9998 7.58715 15.5615 6.09044 14.737 4.803C13.9126 3.51556 12.7365 2.49131 11.3481 1.8515C9.95962 1.21168 8.4169 0.983105 6.90257 1.19282C5.38823 1.40254 3.9657 2.04177 2.80337 3.03484C1.64104 4.02791 0.787596 5.33322 0.344069 6.79626C-0.099457 8.2593 -0.114491 9.81878 0.300748 11.2901C0.715987 12.7614 1.54411 14.0829 2.68708 15.0982C3.83004 16.1135 5.23999 16.7801 6.75 17.0189V11.4289H4.719V9.11593H6.75V7.35393C6.75 5.34893 7.944 4.24093 9.772 4.24093C10.647 4.24093 11.562 4.39693 11.562 4.39693V6.36693H10.554C9.56 6.36693 9.25 6.98293 9.25 7.61693V9.11693H11.469L11.114 11.4289H9.25V17.0189C11.1317 16.7208 12.8454 15.7612 14.0827 14.3125C15.32 12.8638 15.9999 11.0211 16 9.11593Z" fill="#FF6435"/>
</g>
<defs>
<clipPath id="clip0_1_4211">
<rect width="16" height="17" fill="white" transform="translate(0 0.953857)"/>
</clipPath>
</defs>
</svg>
