<svg width="16" height="16" viewBox="0 0 16 16" fill="none" xmlns="http://www.w3.org/2000/svg">
  <rect width="16" height="16" fill="none" />
  <path
    d="M2.66667 14.6666C2.3 14.6666 1.98611 14.536 1.725 14.2749C1.46389 14.0138 1.33334 13.6999 1.33334 13.3333V7.53325C1.33334 7.26658 1.40556 7.02214 1.55 6.79992C1.69445 6.5777 1.89445 6.41103 2.15 6.29992L5.06667 5.06659C5.28889 4.9777 5.5 4.99436 5.7 5.11659C5.9 5.23881 6 5.42214 6 5.66658V5.99992L8.41667 5.03325C8.63889 4.94436 8.84722 4.96659 9.04167 5.09992C9.23611 5.23325 9.33334 5.41658 9.33334 5.64992V6.66658H14.6667V13.3333C14.6667 13.6999 14.5361 14.0138 14.275 14.2749C14.0139 14.536 13.7 14.6666 13.3333 14.6666H2.66667ZM2.66667 13.3333H13.3333V7.99992H8V6.63325L4.66667 7.96658V6.66658L2.66667 7.54992V13.3333ZM7.33334 11.9999H8.66667V9.33325H7.33334V11.9999ZM4.66667 11.9999H6V9.33325H4.66667V11.9999ZM10 11.9999H11.3333V9.33325H10V11.9999ZM14.6667 6.66658H11.3333L11.9333 1.91659C11.9556 1.74992 12.0278 1.61103 12.15 1.49992C12.2722 1.38881 12.4167 1.33325 12.5833 1.33325H13.4167C13.5833 1.33325 13.7278 1.38881 13.85 1.49992C13.9722 1.61103 14.0444 1.74992 14.0667 1.91659L14.6667 6.66658Z"
    stroke="#4D3D33"
    strokeWidth="1.33333"
    strokeLinecap="round"
    strokeLinejoin="round"
  />
</svg>
