<svg width="16" height="18" viewBox="0 0 16 18" fill="none" xmlns="http://www.w3.org/2000/svg">
<g clip-path="url(#clip0_1_4217)">
<path d="M14.816 1.11597H1.18C0.528 1.11597 0 1.63197 0 2.26897V15.959C0.00343032 16.2689 0.129723 16.5649 0.351149 16.7818C0.572575 16.9987 0.871036 17.1189 1.181 17.116H14.816C15.469 17.116 16 16.597 16 15.963V2.26897C16 1.63197 15.469 1.11597 14.816 1.11597ZM4.746 14.751H2.373V7.11297H4.748V14.751H4.746ZM3.56 6.07097C3.37626 6.07618 3.19333 6.04453 3.02203 5.97788C2.85072 5.91123 2.6945 5.81093 2.5626 5.6829C2.4307 5.55488 2.32579 5.40172 2.25406 5.23248C2.18233 5.06324 2.14523 4.88134 2.14496 4.69752C2.1447 4.51371 2.18126 4.3317 2.2525 4.16225C2.32374 3.9928 2.42821 3.83934 2.55974 3.71093C2.69126 3.58252 2.84719 3.48177 3.0183 3.41462C3.18941 3.34747 3.37224 3.31529 3.556 3.31997C3.91441 3.3291 4.2551 3.47775 4.50555 3.73429C4.75601 3.99083 4.89644 4.335 4.89696 4.69352C4.89748 5.05204 4.75805 5.39661 4.50834 5.65388C4.25864 5.91115 3.91838 6.0608 3.56 6.07097ZM13.635 14.749H11.263V11.037C11.263 10.153 11.248 9.01197 10.029 9.01197C8.795 9.01197 8.607 9.97797 8.607 10.975V14.749H6.237V7.11397H8.512V8.15797H8.544C8.859 7.55797 9.634 6.92297 10.787 6.92297C13.191 6.92297 13.634 8.50497 13.634 10.561V14.751L13.635 14.749Z" fill="#FF6435"/>
</g>
<defs>
<clipPath id="clip0_1_4217">
<rect width="16" height="17" fill="white" transform="translate(0 0.953857)"/>
</clipPath>
</defs>
</svg>
