<svg width="16" height="18" viewBox="0 0 16 18" fill="none" xmlns="http://www.w3.org/2000/svg">
<g clip-path="url(#clip0_1_4214)">
<path d="M5.033 15.6168C11.07 15.6168 14.373 10.6138 14.373 6.27678C14.373 6.13678 14.369 5.99278 14.363 5.85278C15.0054 5.38797 15.5598 4.81229 16 4.15278C15.4017 4.41911 14.7665 4.59309 14.116 4.66878C14.8007 4.25825 15.3134 3.61341 15.559 2.85378C14.9148 3.23536 14.2105 3.50453 13.476 3.64978C12.9809 3.12367 12.3262 2.77533 11.6132 2.65864C10.9003 2.54195 10.1687 2.66341 9.53168 3.00423C8.89466 3.34505 8.38768 3.88624 8.08912 4.54413C7.79056 5.20201 7.71707 5.93994 7.88 6.64378C6.57521 6.57843 5.29873 6.23958 4.13331 5.6492C2.96789 5.05883 1.93956 4.23011 1.115 3.21678C0.696023 3.93927 0.567871 4.79418 0.756592 5.60776C0.945312 6.42134 1.43674 7.13253 2.131 7.59678C1.60991 7.58031 1.10022 7.44011 0.644 7.18778V7.22778C0.643208 7.98624 0.90521 8.72154 1.38543 9.3086C1.86566 9.89566 2.53444 10.2982 3.278 10.4478C2.79507 10.5792 2.28847 10.5984 1.797 10.5038C2.00691 11.1557 2.41504 11.7259 2.96447 12.1348C3.5139 12.5437 4.17725 12.7709 4.862 12.7848C4.18072 13.3197 3.40055 13.715 2.56624 13.9478C1.73192 14.1807 0.859842 14.2466 0 14.1418C1.5017 15.1055 3.24867 15.6175 5.033 15.6168Z" fill="#FF6435"/>
</g>
<defs>
<clipPath id="clip0_1_4214">
<rect width="16" height="17" fill="white" transform="translate(0 0.953857)"/>
</clipPath>
</defs>
</svg>
